<svg xmlns="http://www.w3.org/2000/svg" viewBox="0 0 90 90"><defs><style>.cls-1{fill:#fff;}.cls-2{fill:none;stroke:#000;stroke-miterlimit:10;stroke-width:3px;}</style></defs><g id="图层_2" data-name="图层 2"><g id="图层_1-2" data-name="图层 1"><rect class="cls-1" x="0.5" y="0.5" width="89" height="89" rx="24.5"/><path d="M65,1A24,24,0,0,1,89,25V65A24,24,0,0,1,65,89H25A24,24,0,0,1,1,65V25A24,24,0,0,1,25,1H65m0-1H25A25,25,0,0,0,0,25V65A25,25,0,0,0,25,90H65A25,25,0,0,0,90,65V25A25,25,0,0,0,65,0Z"/><path d="M15.08,45.7c6-4,12-8,18.09-11.92,1.61-1.05.11-3.64-1.52-2.59-6.06,3.93-12,8-18.08,11.92-1.61,1-.11,3.65,1.51,2.59Z"/><path d="M13.39,45.47c5.94,4.65,12.24,8.82,18,13.75,1.45,1.25,3.58-.86,2.12-2.12-5.72-4.93-12-9.1-18-13.75a1.54,1.54,0,0,0-2.12,0,1.51,1.51,0,0,0,0,2.12Z"/><path d="M75.24,43.88c-6,4-12,8-18.08,11.92-1.62,1-.11,3.64,1.51,2.59,6.06-3.93,12-8,18.09-11.92,1.6-1.06.1-3.66-1.52-2.59Z"/><path d="M76.93,44.11C71,39.46,64.69,35.28,59,30.36c-1.46-1.26-3.59.86-2.13,2.12,5.72,4.93,12,9.1,18,13.75a1.55,1.55,0,0,0,2.12,0,1.51,1.51,0,0,0,0-2.12Z"/><line class="cls-2" x1="52.31" y1="23.5" x2="37.54" y2="66.5"/></g></g></svg>