<svg xmlns="http://www.w3.org/2000/svg" viewBox="0 0 90 90"><defs><style>.cls-1,.cls-2{fill:#fff;}.cls-2,.cls-3{stroke:#000;stroke-miterlimit:10;}.cls-3{fill:none;}</style></defs><g id="图层_2" data-name="图层 2"><g id="图层_1-2" data-name="图层 1"><rect class="cls-1" x="0.5" y="0.5" width="89" height="89" rx="24.5"/><path d="M25,0V1H65A24,24,0,0,1,89,25V65A24,24,0,0,1,65,89H25A24,24,0,0,1,1,65V25A24,24,0,0,1,25,1V0m0,0A25,25,0,0,0,0,25V65A25,25,0,0,0,25,90H65A25,25,0,0,0,90,65V25A25,25,0,0,0,65,0Z"/><path class="cls-2" d="M36.76,57.68S18.89,77,11.08,65.13c0,0-3-8.56,11.53-35.73A27.46,27.46,0,0,1,53.55,18.74a24.3,24.3,0,0,1,11.12,6.49,23,23,0,0,1,3,4.09c5,8.13,5.69,12.19,11.22,28.06.64,1.87,1.73,4.95.32,7.67a7.3,7.3,0,0,1-3.6,3.22S71.23,70,53.55,57.61"/><line class="cls-3" x1="36.76" y1="57.68" x2="53.5" y2="57.68"/><circle class="cls-3" cx="59.27" cy="40" r="7.63"/><line class="cls-3" x1="30.93" y1="31.63" x2="33.29" y2="31.63"/><line class="cls-3" x1="33.29" y1="39.28" x2="33.29" y2="31.63"/><line class="cls-3" x1="30.93" y1="39.28" x2="30.93" y2="31.63"/><line class="cls-3" x1="23.48" y1="41.96" x2="23.48" y2="39.6"/><line class="cls-3" x1="31.12" y1="39.6" x2="23.48" y2="39.6"/><line class="cls-3" x1="31.12" y1="41.96" x2="23.48" y2="41.96"/><line class="cls-3" x1="40.68" y1="41.81" x2="40.68" y2="39.46"/><line class="cls-3" x1="33.03" y1="39.46" x2="40.68" y2="39.46"/><line class="cls-3" x1="33.03" y1="41.81" x2="40.68" y2="41.81"/><line class="cls-3" x1="30.83" y1="49.31" x2="33.18" y2="49.31"/><line class="cls-3" x1="33.18" y1="41.66" x2="33.18" y2="49.31"/><line class="cls-3" x1="30.83" y1="41.66" x2="30.83" y2="49.31"/></g></g></svg>