<svg xmlns="http://www.w3.org/2000/svg" viewBox="0 0 90 90"><defs><style>.cls-1{fill:#fff;}.cls-2{fill:none;stroke:#000;stroke-miterlimit:10;}</style></defs><g id="图层_2" data-name="图层 2"><g id="图层_1-2" data-name="图层 1"><rect class="cls-1" x="0.5" y="0.5" width="89" height="89" rx="24.5"/><path d="M25,0V1H65A24,24,0,0,1,89,25V65A24,24,0,0,1,65,89H25A24,24,0,0,1,1,65V25A24,24,0,0,1,25,1V0m0,0A25,25,0,0,0,0,25V65A25,25,0,0,0,25,90H65A25,25,0,0,0,90,65V25A25,25,0,0,0,65,0Z"/><rect class="cls-1" x="32.09" y="35.19" width="24.31" height="24.31" rx="4.79"/><path d="M51.62,35.69A4.3,4.3,0,0,1,55.91,40V54.72A4.29,4.29,0,0,1,51.62,59H36.88a4.29,4.29,0,0,1-4.29-4.28V40a4.3,4.3,0,0,1,4.29-4.29H51.62m0-1H36.88A5.29,5.29,0,0,0,31.59,40V54.72A5.28,5.28,0,0,0,36.88,60H51.62a5.28,5.28,0,0,0,5.29-5.28V40a5.29,5.29,0,0,0-5.29-5.29Z"/><line class="cls-2" x1="56.52" y1="41.21" x2="68.8" y2="41.21"/><line class="cls-2" x1="68.8" y1="26.64" x2="68.8" y2="41.59"/><line class="cls-2" x1="49.62" y1="35.07" x2="49.62" y2="23.57"/><line class="cls-2" x1="56.52" y1="53.48" x2="74.93" y2="53.48"/><path class="cls-2" d="M48.09,59.62v6.32"/><path class="cls-2" d="M55.37,65.76H47.7"/><line class="cls-2" x1="54.99" y1="74.96" x2="54.99" y2="65.76"/><line class="cls-2" x1="31.98" y1="41.98" x2="13.57" y2="41.98"/><line class="cls-2" x1="35.81" y1="35.07" x2="35.81" y2="23.57"/><line class="cls-2" x1="24.31" y1="23.57" x2="35.81" y2="23.57"/><line class="cls-2" x1="24.69" y1="23.57" x2="36.2" y2="23.57"/><line class="cls-2" x1="31.98" y1="50.41" x2="23.92" y2="50.41"/><line class="cls-2" x1="24.31" y1="57.32" x2="24.31" y2="50.41"/><path class="cls-2" d="M17.5,57.32h7.19"/><circle class="cls-2" cx="12.03" cy="41.98" r="1.53"/><circle class="cls-2" cx="15.87" cy="57.32" r="1.53"/><circle class="cls-2" cx="54.99" cy="76.49" r="1.53"/><circle class="cls-2" cx="76.47" cy="53.48" r="1.53"/><circle class="cls-2" cx="68.8" cy="25.1" r="1.53"/><circle class="cls-2" cx="49.62" cy="22.03" r="1.53"/><circle class="cls-2" cx="22.77" cy="23.57" r="1.53"/></g></g></svg>